<svg width="19" height="42" viewBox="0 0 19 42" fill="none" xmlns="http://www.w3.org/2000/svg">
<path d="M16.9856 35.8676V34.1471H18.1769C18.5739 34.1471 18.8829 33.8381 18.8829 33.4411C18.8829 33.0441 18.5739 32.7352 18.1769 32.7352H16.9856V9.48513C16.9856 9.08815 16.6767 8.77918 16.2797 8.77918H14.8238V3.5291H14.9561C15.9267 3.5291 16.7207 2.73514 16.7207 1.76455C16.7207 0.793961 15.9267 0 14.9561 0H3.92672C2.95613 0 2.16217 0.793961 2.16217 1.76455C2.16217 2.73514 2.95613 3.5291 3.92672 3.5291H4.05905V8.73483H2.60316C2.20617 8.73483 1.89721 9.0438 1.89721 9.44078V32.6467H0.705953C0.308965 32.6467 0 32.9557 0 33.3526C0 33.7496 0.308973 34.0586 0.705953 34.0586H1.89721V35.7792C1.89721 36.1762 2.20618 36.4851 2.60316 36.4851H16.2355C16.6328 36.5735 16.9858 36.2648 16.9858 35.8675L16.9856 35.8676ZM3.30916 34.1031H15.5298V35.1177H3.30916V34.1031ZM13.4121 10.1913V21.8384H5.47093V10.1913H13.4121ZM4.05916 22.5443V26.1621C4.05916 26.5591 4.36814 26.868 4.76512 26.868H14.0739C14.4709 26.868 14.7799 26.5591 14.7799 26.1621V10.1915H15.5299V32.6915L3.30927 32.6912V10.1912H4.05923L4.05916 22.5443ZM5.47109 3.52955H13.4123V8.73528L5.47109 8.73558V3.52955Z" fill="white"/>
<path d="M4.05916 31.1471C4.05916 31.5441 4.36813 31.8531 4.76511 31.8531H14.0739C14.4709 31.8531 14.7799 31.5441 14.7799 31.1471V28.5883C14.7799 28.1913 14.4709 27.8823 14.0739 27.8823H4.76511C4.36812 27.8823 4.05916 28.1913 4.05916 28.5883V31.1471Z" fill="white"/>
<path d="M9.44152 42.0001C10.1032 42.0001 10.6328 41.4708 10.6328 40.8088C10.6328 40.1472 9.44152 38.2939 9.44152 38.2939C9.44152 38.2939 8.25027 40.1029 8.25027 40.8088C8.25027 41.4708 8.77989 42.0001 9.44152 42.0001Z" fill="white"/>
<path d="M13.4121 42.0001C14.0737 42.0001 14.6034 41.4708 14.6034 40.8088C14.6034 40.1472 13.4121 38.2939 13.4121 38.2939C13.4121 38.2939 12.2209 40.1029 12.2209 40.8088C12.1768 41.4708 12.7505 42.0001 13.4121 42.0001Z" fill="white"/>
<path d="M5.47093 42.0001C6.13257 42.0001 6.66219 41.4708 6.66219 40.8088C6.66219 40.1472 5.47093 38.2939 5.47093 38.2939C5.47093 38.2939 4.27968 40.1029 4.27968 40.8088C4.27968 41.4708 4.809 42.0001 5.47093 42.0001Z" fill="white"/>
</svg>
