<svg width="173" height="34" viewBox="0 0 173 34" fill="none" xmlns="http://www.w3.org/2000/svg">
<path d="M19.672 23.063C18.5028 21.7276 18.1433 19.9918 17.8285 18.3005C17.5138 16.8316 17.2439 15.4521 16.4795 14.3391C15.6254 13.0485 14.1864 12.2027 12.6126 12.0691C11.039 11.9356 9.42012 12.5143 8.20634 13.5825C8.11629 13.6269 8.07141 13.6716 7.98165 13.716C7.35219 16.8316 8.92582 21.0152 12.2981 24.443C16.8393 29.0275 22.8642 30.4517 25.832 27.6477C26.5515 26.9354 27.0461 26.0455 27.2707 24.9772C24.0785 25.5556 21.246 24.8879 19.672 23.063Z" fill="black"/>
<path d="M9.42023 10.9562C9.01545 11.3122 8.74588 11.7573 8.47605 12.2024C9.735 11.4013 11.2638 10.9562 12.7025 11.0897C14.546 11.2677 16.2097 12.2471 17.2437 13.7602C18.0978 15.0508 18.4129 16.5641 18.7276 18.0331C19.0423 19.6799 19.4019 21.2378 20.3913 22.3949C21.7403 23.997 24.303 24.5757 27.1808 23.997H27.4055C27.6302 21.015 26.0116 17.2317 22.954 14.1163C18.4128 9.57654 12.3432 8.10749 9.42023 10.9562Z" fill="black"/>
<path d="M28.8897 12.9147C28.5749 11.9801 28.7547 10.9562 28.9345 9.97718C29.0695 9.13168 29.2493 8.3303 29.0695 7.57356C28.8897 6.72806 28.3051 5.97139 27.4958 5.57067C26.6866 5.16997 25.6972 5.12555 24.843 5.4371H24.7081C23.719 6.95043 23.629 9.53203 24.7081 12.0689C26.102 15.4516 29.0246 17.4989 31.1829 16.6534C31.7223 16.431 32.172 16.0303 32.5319 15.5407C30.6881 15.1847 29.339 14.2057 28.8897 12.9147Z" fill="black"/>
<path d="M26.0563 4.32445C25.7864 4.45801 25.5169 4.59158 25.2919 4.814C26.146 4.63601 27.0454 4.76957 27.7649 5.12556C28.7091 5.61511 29.3834 6.50534 29.6085 7.48447C29.7883 8.32998 29.6084 9.22027 29.4735 10.0661C29.2937 11.0007 29.1139 11.891 29.4286 12.7365C29.8334 13.8492 31.0472 14.7394 32.7109 15.0065C32.7558 15.0065 32.801 15.0509 32.801 15.0509C33.5653 13.4932 33.5205 11.1787 32.5763 8.86426C31.1372 5.48158 28.2146 3.43423 26.0563 4.32445Z" fill="black"/>
<path d="M3.30543 28.9379C3.53012 27.9588 4.20473 27.2021 4.8342 26.4454C5.41878 25.8223 5.95823 25.1992 6.18318 24.4425C6.49791 23.597 6.36299 22.662 5.86844 21.9056C5.3739 21.149 4.56463 20.615 3.66533 20.4367C3.62045 20.4367 3.57528 20.3923 3.5304 20.3923C1.91188 21.1934 0.517958 23.3743 0.11322 26.0895C-0.426199 29.7393 1.01252 32.9437 3.35062 33.2999C3.9352 33.389 4.51981 33.2999 5.05924 33.0328C3.66539 31.831 3.0356 30.3177 3.30543 28.9379Z" fill="black"/>
<path d="M5.32874 20.1251C5.014 20.0807 4.74415 20.0807 4.42944 20.1251C5.2387 20.3923 5.95821 20.9706 6.40789 21.6385C6.99248 22.5287 7.08224 23.6414 6.76751 24.6205C6.49766 25.466 5.86821 26.1338 5.28362 26.7569C4.65415 27.4692 4.02467 28.1811 3.84489 29.0269C3.57503 30.1843 4.2045 31.5638 5.4634 32.632L5.55345 32.7211C6.99218 31.7865 8.20625 29.7391 8.56589 27.2912C9.06072 23.6858 7.62196 20.4814 5.32874 20.1251Z" fill="black"/>
<path d="M7.93669 3.47886C8.92581 3.56799 9.78023 4.14639 10.5895 4.72509C11.309 5.21464 11.9833 5.65972 12.7477 5.83777C13.6019 6.01576 14.5464 5.83777 15.2656 5.25909C15.9851 4.72512 16.4348 3.83489 16.4797 2.90018C16.4797 2.85575 16.5246 2.81104 16.5246 2.76661C15.5354 1.25328 13.1974 0.096179 10.4546 0.00705011C6.72263 -0.126514 3.6651 1.65393 3.57535 3.96842C3.57535 4.5471 3.71027 5.12581 4.02501 5.6153C5.10417 4.14668 6.58771 3.34531 7.93669 3.47886Z" fill="black"/>
<path d="M17.0192 4.50255C17.0192 4.191 16.9744 3.92387 16.8843 3.61234C16.7045 4.45785 16.21 5.21451 15.5805 5.70436C14.7712 6.3719 13.6472 6.59458 12.6579 6.3719C11.8037 6.19391 11.0393 5.65966 10.3198 5.17009C9.51058 4.63612 8.79107 4.10183 7.8917 4.0127C6.67763 3.87914 5.41869 4.63581 4.42964 6.0156L4.3396 6.10473C5.46363 7.44009 7.62187 8.37473 10.1398 8.46365C13.8719 8.59721 16.9295 6.81697 17.0192 4.50255Z" fill="black"/>
<path d="M45.0039 27.3984C44.7578 26.7422 44.6465 25.9512 44.6699 25.0254C44.6934 24.0879 44.8223 22.9629 45.0566 21.6504C45.3027 20.3379 45.6719 18.9316 46.1641 17.4316C47.3008 13.9512 48.8477 10.875 50.8047 8.20312C51.1445 7.74609 51.4961 7.51758 51.8594 7.51758C52.2344 7.51758 52.5977 7.59961 52.9492 7.76367C53.3125 7.92773 53.6289 8.12109 53.8984 8.34375C54.5781 8.90625 54.8008 9.36328 54.5664 9.71484C52.9141 12.3633 51.5605 14.7539 50.5059 16.8867C53.166 16.6992 55.5098 15.8555 57.5371 14.3555C59.752 12.7266 60.8594 10.7461 60.8594 8.41406C60.8594 6.83203 60.0742 5.82422 58.5039 5.39062C58.0234 5.26172 57.4492 5.19727 56.7812 5.19727C56.125 5.19727 55.4395 5.26758 54.7246 5.4082C54.0215 5.53711 53.3418 5.71875 52.6855 5.95312C51.3848 6.43359 50.1953 7.06641 49.1172 7.85156C48.8125 8.07422 48.5312 8.18555 48.2734 8.18555C48.0156 8.18555 47.7344 8.12109 47.4297 7.99219C47.125 7.85156 46.8555 7.68164 46.6211 7.48242C45.707 6.70898 45.8359 5.90625 47.0078 5.07422C48.707 3.87891 51.2148 3.10547 54.5312 2.75391C55.1523 2.69531 55.9785 2.66602 57.0098 2.66602C58.0527 2.66602 59.1133 2.83594 60.1914 3.17578C61.2812 3.51562 62.1543 3.97266 62.8105 4.54688C64.0176 5.625 64.6211 7.125 64.6211 9.04688C64.6211 10.7812 63.9355 12.4922 62.5645 14.1797C61.3105 15.7383 59.6934 17.0039 57.7129 17.9766C58.6621 18.3984 59.3711 18.9902 59.8398 19.752C60.3203 20.502 60.5488 21.3164 60.5254 22.1953C60.502 23.0625 60.3262 23.8652 59.998 24.6035C59.6816 25.3301 59.248 25.9922 58.6973 26.5898C58.1582 27.1758 57.5254 27.6973 56.7988 28.1543C56.084 28.5996 55.3281 28.9688 54.5312 29.2617C52.9023 29.8711 51.25 30.1758 49.5742 30.1758C47.2188 30.1758 45.6953 29.25 45.0039 27.3984ZM49.2578 19.7344C48.3672 21.9492 47.8984 23.877 47.8516 25.5176C47.8281 26.3145 48.0215 26.9297 48.4316 27.3633C48.8535 27.7852 49.4277 27.9961 50.1543 27.9961C50.8809 27.9961 51.6309 27.8379 52.4043 27.5215C53.1777 27.2051 53.8867 26.7773 54.5312 26.2383C56.0078 24.9961 56.7695 23.5898 56.8164 22.0195C56.8516 20.5898 56.207 19.6172 54.8828 19.1016C54.4844 18.9492 54.0566 18.8496 53.5996 18.8027C53.0488 18.8262 52.2754 18.9668 51.2793 19.2246C50.2949 19.4824 49.6211 19.6523 49.2578 19.7344Z" fill="black"/>
<path d="M65.7637 28.8047C65.2715 28.3359 64.8848 27.7441 64.6035 27.0293C64.3223 26.3027 64.1758 25.4473 64.1641 24.4629C64.1523 23.4785 64.2695 22.4824 64.5156 21.4746C64.7734 20.4668 65.1309 19.4941 65.5879 18.5566C66.0566 17.6191 66.6133 16.7402 67.2578 15.9199C67.9141 15.0996 68.6348 14.3848 69.4199 13.7754C71.1309 12.4629 72.9062 11.8066 74.7461 11.8066C77.1602 11.8066 78.7949 12.8672 79.6504 14.9883C80.2598 16.5234 80.2949 18.3809 79.7559 20.5605C79.2637 22.5645 78.3613 24.4043 77.0488 26.0801C75.748 27.7559 74.2129 28.9453 72.4434 29.6484C71.5527 30 70.6738 30.1758 69.8066 30.1758C68.9512 30.1758 68.1836 30.0645 67.5039 29.8418C66.8359 29.6191 66.2559 29.2734 65.7637 28.8047ZM69.1211 20.2793C68.7695 21.1465 68.4883 22.0371 68.2773 22.9512C68.0781 23.8652 67.9844 24.7324 67.9961 25.5527C68.0078 26.3613 68.1309 27 68.3652 27.4688C68.6113 27.9258 69.0039 28.1543 69.543 28.1543C70.082 28.1543 70.6094 27.9727 71.125 27.6094C71.6523 27.2344 72.1621 26.7422 72.6543 26.1328C73.1465 25.5234 73.6094 24.8203 74.043 24.0234C74.4766 23.2266 74.8574 22.3945 75.1855 21.5273C75.9004 19.6406 76.2461 17.9648 76.2227 16.5C76.2227 15.2109 75.959 14.3906 75.4316 14.0391C75.2207 13.8984 74.9219 13.8281 74.5352 13.8281C74.1602 13.8281 73.7266 14.0039 73.2344 14.3555C72.7422 14.6953 72.25 15.1582 71.7578 15.7441C71.2656 16.3301 70.791 17.0156 70.334 17.8008C69.877 18.5859 69.4727 19.4121 69.1211 20.2793Z" fill="black"/>
<path d="M99.0566 26.5371C99.3262 26.5371 99.4609 26.6719 99.4609 26.9414C99.4609 27.9609 98.957 28.8164 97.9492 29.5078C97.2695 29.9531 96.4727 30.1758 95.5586 30.1758C94.8086 30.1758 94.2344 30 93.8359 29.6484C93.1211 29.0156 92.7637 28.2422 92.7637 27.3281C92.7637 26.168 93.25 24.3926 94.2227 22.002C92.418 24.4395 91.1523 26.0625 90.4258 26.8711C89.6992 27.668 89.0664 28.2891 88.5273 28.7344C87.3555 29.6953 86.2949 30.1758 85.3457 30.1758C83.8926 30.1758 82.9258 29.5488 82.4453 28.2949C82.3047 27.9082 82.2344 27.4688 82.2344 26.9766C82.2344 26.4727 82.3164 25.916 82.4805 25.3066C82.6562 24.6855 82.8789 24.041 83.1484 23.373C83.418 22.7051 83.7109 22.0195 84.0273 21.3164L84.9766 19.207C86.1953 16.5 86.6465 14.8945 86.3301 14.3906C86.1895 14.168 85.9258 13.9453 85.5391 13.7227C85.3984 13.6406 85.3281 13.5 85.3281 13.3008C85.3281 13.0898 85.4102 12.8906 85.5742 12.7031C85.75 12.5156 85.9727 12.3516 86.2422 12.2109C86.8164 11.9414 87.3906 11.8066 87.9648 11.8066C88.5391 11.8066 88.9727 11.8711 89.2656 12C89.5703 12.1172 89.8164 12.2695 90.0039 12.457C90.3906 12.8438 90.584 13.2715 90.584 13.7402C90.584 14.209 90.5078 14.7363 90.3555 15.3223C90.2031 15.8965 90.0039 16.5234 89.7578 17.2031C89.5117 17.8828 89.2422 18.5859 88.9492 19.3125C88.1406 21.2109 87.5957 22.4648 87.3145 23.0742L86.6641 24.4277C86.3008 25.2363 86.1191 25.8047 86.1191 26.1328C86.1191 26.4609 86.1719 26.6953 86.2773 26.8359C86.3828 26.9648 86.5703 27.0293 86.8398 27.0293C87.1211 27.0293 87.4434 26.9004 87.8066 26.6426C88.1699 26.3848 88.5684 26.0391 89.002 25.6055C89.4355 25.1719 89.8867 24.6738 90.3555 24.1113C90.8242 23.5371 91.2812 22.9453 91.7266 22.3359C92.6055 21.1406 93.25 20.1797 93.6602 19.4531C96.1445 15.0586 97.4688 12.7617 97.6328 12.5625C98.0078 12.0586 98.3887 11.8066 98.7754 11.8066C99.1738 11.8066 99.5195 11.8535 99.8125 11.9473C100.105 12.0293 100.357 12.1523 100.568 12.3164C101.061 12.6797 101.219 13.043 101.043 13.4062C98.1836 19.3711 96.6426 23.1211 96.4199 24.6562C96.3613 25.1836 96.332 25.5469 96.332 25.7461C96.332 26.6367 96.6016 27.082 97.1406 27.082C97.6445 27.082 98.0605 26.9941 98.3887 26.8184C98.7168 26.6309 98.9395 26.5371 99.0566 26.5371Z" fill="black"/>
<path d="M102.66 29.5781C102.426 29.4023 102.238 29.209 102.098 28.998C101.957 28.7754 101.881 28.5879 101.869 28.4355C101.857 28.2715 101.887 28.0781 101.957 27.8555C102.039 27.6211 102.145 27.3398 102.273 27.0117C104.664 21.1289 105.859 17.1797 105.859 15.1641C105.824 14.6016 105.631 14.2031 105.279 13.9688L104.928 13.7227C104.822 13.6406 104.764 13.5 104.752 13.3008C104.752 13.0898 104.828 12.8906 104.98 12.7031C105.133 12.5156 105.332 12.3516 105.578 12.2109C106.082 11.9414 106.598 11.8066 107.125 11.8066C107.664 11.8066 108.08 11.8652 108.373 11.9824C108.678 12.0996 108.936 12.2578 109.146 12.457C109.592 12.8789 109.814 13.3242 109.814 13.793C109.826 14.2617 109.773 14.7363 109.656 15.2168C109.551 15.6973 109.422 16.1719 109.27 16.6406C109.117 17.0977 108.965 17.5371 108.812 17.959C108.66 18.3691 108.561 18.6738 108.514 18.873C108.42 19.2832 108.385 19.541 108.408 19.6465C108.689 19.4004 108.859 19.1602 108.918 18.9258L109.604 17.625C111.127 14.8828 112.615 13.0664 114.068 12.1758C114.49 11.9297 114.994 11.8066 115.58 11.8066C116.178 11.8066 116.658 12.0176 117.021 12.4395C117.385 12.8496 117.572 13.3066 117.584 13.8105C117.607 14.3145 117.572 14.7363 117.479 15.0762C117.396 15.4043 117.268 15.7148 117.092 16.0078C116.705 16.6641 116.236 16.9922 115.686 16.9922C115.533 16.9922 115.393 16.9395 115.264 16.834L114.877 16.5C114.49 16.1602 114.115 15.9902 113.752 15.9902C113.4 15.9902 112.967 16.2246 112.451 16.6934C111.947 17.1621 111.42 17.7656 110.869 18.5039C109.018 20.9531 107.506 23.6953 106.334 26.7305L105.561 28.7695C105.361 29.2734 105.186 29.6367 105.033 29.8594C104.881 30.0703 104.652 30.1758 104.348 30.1758C104.055 30.1758 103.756 30.1172 103.451 30C103.158 29.8945 102.895 29.7539 102.66 29.5781Z" fill="black"/>
<path d="M117.443 25.0078C117.443 24.3281 117.49 23.6777 117.584 23.0566C117.689 22.4355 117.818 21.8086 117.971 21.1758C118.135 20.543 118.316 19.9102 118.516 19.2773L120.484 13.2656C122.043 8.39062 123.021 4.58203 123.42 1.83984C123.549 0.855469 124.029 0.363281 124.861 0.363281C125.354 0.363281 125.77 0.492188 126.109 0.75C126.73 1.25391 127.029 1.79297 127.006 2.36719C126.994 2.92969 126.912 3.5625 126.76 4.26562C126.619 4.95703 126.432 5.71289 126.197 6.5332C125.975 7.35352 125.717 8.21484 125.424 9.11719C124.639 11.4375 124.053 13.1133 123.666 14.1445L122.664 16.7637C123.684 15.1816 124.516 14.0977 125.16 13.5117C126.449 12.375 127.791 11.8066 129.186 11.8066C131.236 11.8066 132.602 12.8789 133.281 15.0234C133.504 15.7617 133.615 16.6816 133.615 17.7832C133.615 18.8848 133.451 19.9805 133.123 21.0703C132.807 22.1484 132.373 23.1562 131.822 24.0938C131.271 25.0195 130.627 25.8574 129.889 26.6074C129.162 27.3574 128.395 27.9961 127.586 28.5234C125.875 29.625 124.217 30.1758 122.611 30.1758C120.994 30.1758 119.723 29.6836 118.797 28.6992C117.895 27.7148 117.443 26.4844 117.443 25.0078ZM122.365 27.8906C123.467 27.8906 124.586 27.3984 125.723 26.4141C127.457 24.9141 128.623 22.7695 129.221 19.9805C129.42 19.0664 129.52 18.1172 129.52 17.1328C129.52 16.1367 129.408 15.4395 129.186 15.041C128.963 14.6426 128.617 14.4434 128.148 14.4434C127.691 14.4434 127.211 14.6309 126.707 15.0059C126.203 15.3809 125.676 15.8789 125.125 16.5C124.574 17.1094 124.029 17.8184 123.49 18.627C122.951 19.4238 122.465 20.25 122.031 21.1055C121.082 22.9922 120.607 24.5977 120.607 25.9219C120.607 27.2344 121.193 27.8906 122.365 27.8906Z" fill="black"/>
<path d="M137.869 28.8047C137.377 28.3359 136.99 27.7441 136.709 27.0293C136.428 26.3027 136.281 25.4473 136.27 24.4629C136.258 23.4785 136.375 22.4824 136.621 21.4746C136.879 20.4668 137.236 19.4941 137.693 18.5566C138.162 17.6191 138.719 16.7402 139.363 15.9199C140.02 15.0996 140.74 14.3848 141.525 13.7754C143.236 12.4629 145.012 11.8066 146.852 11.8066C149.266 11.8066 150.9 12.8672 151.756 14.9883C152.365 16.5234 152.4 18.3809 151.861 20.5605C151.369 22.5645 150.467 24.4043 149.154 26.0801C147.854 27.7559 146.318 28.9453 144.549 29.6484C143.658 30 142.779 30.1758 141.912 30.1758C141.057 30.1758 140.289 30.0645 139.609 29.8418C138.941 29.6191 138.361 29.2734 137.869 28.8047ZM141.227 20.2793C140.875 21.1465 140.594 22.0371 140.383 22.9512C140.184 23.8652 140.09 24.7324 140.102 25.5527C140.113 26.3613 140.236 27 140.471 27.4688C140.717 27.9258 141.109 28.1543 141.648 28.1543C142.188 28.1543 142.715 27.9727 143.23 27.6094C143.758 27.2344 144.268 26.7422 144.76 26.1328C145.252 25.5234 145.715 24.8203 146.148 24.0234C146.582 23.2266 146.963 22.3945 147.291 21.5273C148.006 19.6406 148.352 17.9648 148.328 16.5C148.328 15.2109 148.064 14.3906 147.537 14.0391C147.326 13.8984 147.027 13.8281 146.641 13.8281C146.266 13.8281 145.832 14.0039 145.34 14.3555C144.848 14.6953 144.355 15.1582 143.863 15.7441C143.371 16.3301 142.896 17.0156 142.439 17.8008C141.982 18.5859 141.578 19.4121 141.227 20.2793Z" fill="black"/>
<path d="M167.436 15.1289C167.072 15.1289 166.557 15.4805 165.889 16.1836C165.221 16.875 164.641 17.5078 164.148 18.082L162.654 19.875L159.771 23.5488C159.092 24.8379 158.559 25.9102 158.172 26.7656L157.223 28.8047C156.977 29.3086 156.76 29.666 156.572 29.877C156.396 30.0762 156.15 30.1758 155.834 30.1758C155.529 30.1758 155.23 30.1172 154.938 30C154.656 29.8945 154.41 29.7539 154.199 29.5781C153.754 29.2031 153.531 28.793 153.531 28.3477C153.531 28.1719 153.66 27.8262 153.918 27.3105L154.586 25.8867C154.797 25.4648 155.043 24.9258 155.324 24.2695L156.309 21.8613C157.691 18.4043 158.383 16.1719 158.383 15.1641C158.383 14.625 158.207 14.2266 157.855 13.9688L157.504 13.7227C157.387 13.6406 157.328 13.5 157.328 13.3008C157.328 13.0898 157.404 12.8906 157.557 12.7031C157.721 12.5156 157.932 12.3516 158.189 12.2109C158.717 11.9414 159.244 11.8066 159.771 11.8066C160.311 11.8066 160.727 11.8652 161.02 11.9824C161.312 12.0996 161.559 12.2578 161.758 12.457C162.191 12.8672 162.408 13.2949 162.408 13.7402C162.408 14.1855 162.35 14.6367 162.232 15.0938C162.127 15.5391 161.986 15.9961 161.811 16.4648C161.646 16.9219 161.471 17.373 161.283 17.8184C161.096 18.2637 160.926 18.6504 160.773 18.9785L160.422 19.7344C160.328 19.9219 160.305 19.9805 160.352 19.9102C161.652 18.1055 162.508 16.9453 162.918 16.4297L164.148 14.9531C165.051 13.8984 165.76 13.2012 166.275 12.8613C167.318 12.1582 168.139 11.8066 168.736 11.8066C169.334 11.8066 169.838 11.8828 170.248 12.0352C170.658 12.1875 171.016 12.4043 171.32 12.6855C171.965 13.2832 172.287 14.0449 172.287 14.9707C172.287 15.8965 172.076 16.8633 171.654 17.8711C171.232 18.8789 170.863 19.6992 170.547 20.332C170.242 20.9531 169.949 21.5859 169.668 22.2305C168.789 24.1875 168.35 25.6113 168.35 26.502C168.35 26.9004 168.666 27.0996 169.299 27.0996C169.791 27.0996 170.236 26.9941 170.635 26.7832C171.045 26.5723 171.309 26.4668 171.426 26.4668C171.672 26.4668 171.795 26.5898 171.795 26.8359C171.795 27.8789 171.262 28.752 170.195 29.4551C169.48 29.9355 168.824 30.1758 168.227 30.1758C167.629 30.1758 167.131 30.1113 166.732 29.9824C166.346 29.8535 166 29.6484 165.695 29.3672C165.004 28.7461 164.658 27.8789 164.658 26.7656C164.658 25.4062 165.086 23.707 165.941 21.668C166.562 20.2734 167.002 19.3184 167.26 18.8027L167.857 17.5547C168.221 16.8047 168.402 16.2129 168.402 15.7793C168.402 15.3457 168.08 15.1289 167.436 15.1289Z" fill="black"/>
</svg>
