<svg width="39" height="42" viewBox="0 0 39 42" fill="none" xmlns="http://www.w3.org/2000/svg">
<path d="M38.905 10.9051C38.905 8.09562 36.3337 5.61931 32.143 4.00033V0.714491C32.143 0.333491 31.8095 0.000332168 31.4288 0.000332168L7.47615 0C7.09515 0 6.76199 0.333499 6.76199 0.714159V4C2.61917 5.66686 0 8.09529 0 10.9048C0 13.9524 3.04766 16.619 7.85707 18.238L10.7144 36.2382H5.09513C2.33319 36.2382 0.0475344 38.5239 0.0475344 41.2858C0.0475344 41.6668 0.381033 42 0.761692 42H38.1907C38.5717 42 38.9049 41.6665 38.9049 41.2858C38.9052 38.5239 36.6196 36.2382 33.8576 36.2382H28.2383L29.7623 26.381H34.1434C35.0957 26.381 35.9052 25.619 35.9052 24.6191C35.9052 23.6668 35.1432 22.8573 34.1434 22.8573H30.2862L31.0004 18.2382C35.8099 16.6192 38.9053 13.9526 38.9053 10.9049L38.905 10.9051ZM1.52356 40.5721C1.85706 38.9053 3.33319 37.6198 5.09503 37.6198H33.8573C35.6191 37.6198 37.0953 38.9056 37.4288 40.5721H1.52356ZM30.762 1.42879V3.47626C27.5715 2.42897 23.7144 1.85728 19.4762 1.85728C15.2379 1.85728 11.3809 2.47644 8.19031 3.52414V1.42879H30.762ZM19.4762 3.23842C29.2382 3.23842 37.4764 6.76236 37.4764 10.9052C37.4764 15.048 29.2383 18.5719 19.4762 18.5719C9.71405 18.5719 1.47594 15.048 1.47594 10.9052C1.47594 6.76202 9.71405 3.23842 19.4762 3.23842V3.23842ZM34.1906 24.953H28.0479C27.8575 24.953 27.7144 24.8101 27.7144 24.6195C27.7144 24.4291 27.8572 24.286 28.0479 24.286H34.1432C34.3335 24.286 34.4767 24.4288 34.4767 24.6195C34.4763 24.8101 34.3813 24.953 34.1907 24.953H34.1906ZM24.7619 30.7148V31.7624C24.7619 32.7626 23.9525 33.572 22.9523 33.572L23.3808 30.7147L24.7619 30.7148ZM21.1905 36.2387H18.1428L17.3333 30.7148H22L21.1905 36.2387ZM24.1428 22.3338H14.8094V19.7146C16.2855 19.8575 17.857 19.9528 19.476 19.9528C21.095 19.9528 22.619 19.8575 24.1426 19.7146L24.1428 22.3338ZM15.9047 25.5721V23.7625H23.0476V25.5721H15.9047ZM13.4284 19.5243V23.0483C13.4284 23.4293 13.7619 23.7624 14.1425 23.7624H14.5235V26.2863C14.5235 26.6673 14.857 27.0004 15.2377 27.0004H18.8092V29.3339H16.5235C16.3332 29.3339 16.1425 29.4292 15.9997 29.572C15.8568 29.7149 15.8093 29.953 15.8568 30.1434L16.7142 36.2387H12.1425L9.42803 18.667C10.6663 19.048 11.9997 19.3337 13.4283 19.5244L13.4284 19.5243ZM22.619 36.2388L22.8093 34.953H22.9996C24.7615 34.953 26.2376 33.5243 26.2376 31.7151L26.2379 30.0482C26.2379 29.6672 25.9044 29.334 25.5238 29.334H20.1905V27.0006H23.7616C24.1426 27.0006 24.4758 26.6671 24.4758 26.2864V25.3341H26.4758C26.7615 25.9533 27.3806 26.3818 28.0948 26.3818H28.3804L26.8092 36.239L22.619 36.2388ZM28.0476 22.8577C27.3335 22.8577 26.7143 23.2862 26.4286 23.9053H24.4286V23.715H24.8096C25.1906 23.715 25.5238 23.3815 25.5238 23.0009V19.4769C26.9524 19.2866 28.2857 19.0006 29.5237 18.6199L28.8571 22.7628L28.0476 22.7624L28.0476 22.8577Z" fill="white"/>
<path d="M14.4285 10.905C14.4285 13.667 16.6666 15.9526 19.4761 15.9526C22.2856 15.9526 24.5237 13.7145 24.5237 10.905C24.5237 8.14308 22.2856 5.85742 19.4761 5.85742C16.6666 5.85742 14.4285 8.14308 14.4285 10.905ZM23.0953 10.905C23.0953 12.905 21.4763 14.524 19.4763 14.524C17.4762 14.524 15.8573 12.905 15.8573 10.905C15.8573 8.90499 17.4762 7.28601 19.4763 7.28601C21.4763 7.28568 23.0953 8.90499 23.0953 10.905V10.905Z" fill="white"/>
<path d="M26.2382 10.9051C26.2382 11.8574 27.0002 12.6194 27.9525 12.6194C28.9048 12.6194 29.6668 11.8574 29.6668 10.9051C29.6668 9.95279 28.9048 9.1908 27.9525 9.1908C27.0002 9.1908 26.2382 9.95246 26.2382 10.9051ZM27.9525 11.1908C27.7621 11.1908 27.619 11.0479 27.619 10.8573C27.619 10.6669 27.7618 10.5238 27.9525 10.5238C28.1428 10.5238 28.286 10.6666 28.286 10.8573C28.286 11.0954 28.1431 11.1908 27.9525 11.1908Z" fill="white"/>
<path d="M31.0953 10.9051C31.0953 11.8574 31.8573 12.6194 32.8096 12.6194C33.762 12.6194 34.524 11.8574 34.524 10.9051C34.524 9.95279 33.762 9.1908 32.8096 9.1908C31.8573 9.1908 31.0953 9.95246 31.0953 10.9051ZM32.8096 10.5716C33 10.5716 33.1431 10.7144 33.1431 10.9051C33.1431 11.0954 33.0003 11.2386 32.8096 11.2386C32.6193 11.2386 32.4761 11.0958 32.4761 10.9051C32.4761 10.7144 32.619 10.5716 32.8096 10.5716Z" fill="white"/>
</svg>
