<svg width="30" height="42" viewBox="0 0 30 42" fill="none" xmlns="http://www.w3.org/2000/svg">
<path d="M28.2599 10.0756H27.3031V5.03778H18.9022V1.68897H21.4234V0H14.7258V1.68393H17.2471V5.03274L8.81708 5.03307V11.3433H6.30088C4.63027 11.3456 3.02913 12.0104 1.84813 13.1914C0.66713 14.3724 0.00264836 15.9735 0 17.6438V26.0447C0.00266972 27.7153 0.667096 29.3161 1.84813 30.4975C3.02913 31.6785 4.63027 32.343 6.30088 32.3456H8.81742L8.81708 39.4788C8.81575 40.1479 9.08105 40.79 9.55426 41.2628C10.0275 41.736 10.6692 42.0013 11.3383 42H24.7817C25.4502 42 26.0909 41.7344 26.5631 41.2611C27.035 40.7883 27.2997 40.1469 27.2983 39.4788V16.2091L29.652 12.6975H29.6524C29.8793 12.3584 29.9757 11.9486 29.9237 11.5438C29.8713 11.139 29.6737 10.7673 29.3677 10.4973C29.0617 10.227 28.6682 10.0775 28.2601 10.0758L28.2599 10.0756ZM10.4962 6.72675H25.6192V10.0756H10.4962V6.72675ZM6.30045 29.8341H6.30078C5.29868 29.8328 4.33818 29.434 3.62936 28.7255C2.92088 28.017 2.52243 27.0566 2.52106 26.0544V17.6438C2.52106 16.6417 2.91919 15.6803 3.62799 14.9714C4.33679 14.2626 5.29825 13.8645 6.3007 13.8645H8.81724L8.8169 29.8247L6.30045 29.8341ZM25.619 15.6876V39.4793C25.6216 39.7025 25.5345 39.9174 25.377 40.0756C25.2195 40.2341 25.0053 40.3226 24.7817 40.3212H11.3382C10.8734 40.3212 10.4963 39.9441 10.4963 39.4793V11.7603H28.2599L25.619 15.6876ZM18.9213 36.1065H23.9397V38.6517H12.1802V36.1255H17.2229V13.4436H18.9021L18.9213 36.1065Z" fill="white"/>
</svg>
