<svg width="32" height="32" viewBox="0 0 32 32" fill="none" xmlns="http://www.w3.org/2000/svg">
<path d="M10.052 29.9999C22.128 29.9999 28.734 19.9939 28.734 11.3319C28.734 11.0519 28.734 10.7679 28.722 10.4879C30.0081 9.55689 31.1181 8.40422 32 7.08392C30.7986 7.61362 29.5255 7.96273 28.222 8.11992C29.5951 7.2992 30.6234 6.00786 31.116 4.48592C29.826 5.25017 28.414 5.78667 26.942 6.07192C25.9524 5.01797 24.6428 4.31976 23.2162 4.08544C21.7895 3.85112 20.3254 4.09376 19.0507 4.7758C17.7759 5.45783 16.7616 6.54118 16.1649 7.85804C15.5682 9.1749 15.4224 10.6518 15.75 12.0599C13.1395 11.929 10.5856 11.2509 8.25409 10.0694C5.92254 8.88796 3.86537 7.22961 2.216 5.20192C1.37868 6.64809 1.12315 8.35872 1.50129 9.98645C1.87944 11.6142 2.86291 13.037 4.252 13.9659C3.21108 13.9306 2.19304 13.651 1.28 13.1499V13.2399C1.28179 14.7549 1.80661 16.2228 2.76575 17.3954C3.72488 18.5681 5.0595 19.3737 6.544 19.6759C5.98053 19.8312 5.39846 19.9085 4.814 19.9059C4.40197 19.9072 3.99076 19.869 3.586 19.7919C4.00557 21.096 4.82255 22.2363 5.92249 23.0529C7.02244 23.8695 8.35027 24.3216 9.72 24.3459C7.39311 26.1735 4.5188 27.1647 1.56 27.1599C1.03864 27.1621 0.517646 27.1321 0 27.0699C3.00303 28.9844 6.4906 30.001 10.052 29.9999Z" fill="#F7F7F7"/>
</svg>
