<svg width="42" height="42" viewBox="0 0 42 42" fill="none" xmlns="http://www.w3.org/2000/svg">
<path d="M20.4315 25.4236C19.2159 25.4236 18.0444 25.512 16.9173 25.6742C17.5656 25.49 18.177 25.2174 18.7443 24.8566C20.9617 23.4348 22.2141 20.8487 22.2733 17.5559C22.3322 14.3807 21.2567 10.9106 19.26 7.77987C16.2322 3.05008 11.5985 0 7.44311 0C5.99174 0 4.67323 0.368357 3.53128 1.09783C1.3139 2.51965 0.061485 5.10573 0.00229531 8.39854C-0.0565762 11.5737 1.01888 15.0438 3.01558 18.1745C6.04335 22.9043 10.6774 25.9541 14.8249 25.9541C15.0607 25.9541 15.2965 25.932 15.5248 25.91C9.93299 27.0371 6.01401 30.0652 6.01401 33.7119C6.01401 38.3605 12.3425 42 20.4166 42C28.4908 42 34.8191 38.3605 34.8191 33.7119C34.8191 29.063 28.5054 25.4236 20.4309 25.4236L20.4315 25.4236ZM18.0152 8.56755C19.8642 11.4556 20.8516 14.6307 20.7999 17.526C20.7558 19.8098 20.0559 21.6664 18.818 22.8892C17.8823 19.9864 14.5154 15.0136 10.9279 12.7301C7.67911 10.6673 5.41736 4.03688 4.80593 2.07007C5.59428 1.67211 6.47073 1.45866 7.44328 1.45866C11.1048 1.47379 15.2524 4.25851 18.0149 8.56825L18.0152 8.56755ZM4.26092 17.3787C2.4119 14.4906 1.42453 11.3155 1.47623 8.42021C1.5203 6.08478 2.24978 4.1913 3.53903 2.96852C4.34941 5.48817 6.67011 11.7796 10.1398 13.9822C13.8382 16.3249 17.1458 21.6881 17.5586 23.8171C16.7482 24.2443 15.8345 24.4802 14.8255 24.4802C11.1716 24.4798 7.02356 21.6879 4.26059 17.3781L4.26092 17.3787ZM20.4316 26.897C26.7525 26.897 32.1752 29.4387 33.1772 32.6434C30.1934 31.9803 24.0857 32.1129 20.1672 33.6307C16.587 35.0157 9.64694 33.6159 7.56225 33.1446C8.12926 29.7041 13.7875 26.8971 20.4324 26.8971L20.4316 26.897ZM20.4316 40.5191C14.0442 40.5191 8.57007 37.9257 7.64981 34.6694C9.34425 35.0377 12.7699 35.686 16.0043 35.686C17.7208 35.686 19.386 35.5018 20.6972 34.9933C24.7564 33.4242 31.1805 33.5051 33.3174 34.1757C32.8313 37.6679 27.1362 40.519 20.432 40.519L20.4316 40.5191Z" fill="white"/>
<path d="M37.7666 2.28319C36.9414 1.77473 35.9985 1.50964 34.9523 1.50964C31.5413 1.50964 27.644 4.24273 25.0138 8.47164C23.3561 11.1386 22.428 14.0486 22.3985 16.664C22.3689 19.4195 23.3342 21.5411 25.1023 22.6462C25.9275 23.1547 26.8704 23.4197 27.9166 23.4197C31.3275 23.4197 35.2249 20.6867 37.8551 16.4577C41.4134 10.7483 41.3689 4.52297 37.7666 2.28336L37.7666 2.28319ZM23.8793 16.6857C23.9014 14.3355 24.7561 11.6909 26.2737 9.25217C28.6015 5.50217 32.0937 2.9901 34.9593 2.9901C35.3573 2.9901 35.7329 3.04174 36.0865 3.14468C34.4361 4.79509 30.7673 8.76577 30.2516 12.0661C29.7063 15.5727 26.9512 19.9193 25.5218 21.1205C24.4388 20.222 23.8567 18.6749 23.879 16.6857L23.8793 16.6857ZM36.6097 15.6764C34.2819 19.4264 30.7897 21.9385 27.9241 21.9385C27.5557 21.9385 27.217 21.8944 26.8855 21.8132C28.7052 19.9274 31.1656 15.6912 31.6962 12.2872C32.175 9.22268 36.1092 5.16317 37.4277 3.87388C39.7631 5.91462 39.4465 11.1161 36.6101 15.6765L36.6097 15.6764Z" fill="white"/>
</svg>
