<svg width="34" height="42" viewBox="0 0 34 42" fill="none" xmlns="http://www.w3.org/2000/svg">
<path d="M23.3237 6.22956C23.3738 6.27967 23.4242 6.27967 23.5245 6.27967C23.6752 6.27967 23.7757 6.22956 23.8258 6.07887L24.6799 4.52154C24.7804 4.32074 24.73 4.11958 24.5292 4.01901C24.3284 3.91843 24.1272 3.96889 24.0266 4.1697L23.1726 5.72702C23.0724 5.87806 23.1225 6.12898 23.3237 6.22956V6.22956Z" fill="white"/>
<path d="M32.7184 25.3205H23.4744L33.3715 7.43533C33.5222 7.18406 33.4721 6.9328 33.3715 6.68189C33.2208 6.48108 33.0197 6.33004 32.7183 6.33004H30.1058L31.7136 3.66736C31.8142 3.46656 31.8643 3.26541 31.7637 3.0646C31.7136 2.8638 31.5124 2.71276 31.3116 2.61253C26.8403 0.904485 21.8164 0 16.7423 0C11.6681 0 6.59394 0.904127 2.17289 2.61253C1.97209 2.71311 1.82104 2.8638 1.72082 3.0646C1.6707 3.26541 1.6707 3.51667 1.77093 3.66736L3.37876 6.33004H0.766236C0.514968 6.33004 0.2637 6.48073 0.113018 6.68189C-0.0376727 6.88269 -0.0376727 7.18442 0.113018 7.43533L9.9599 25.3205H0.866606C0.464647 25.3205 0.113162 25.6723 0.113162 26.0739C0.113162 26.4759 0.465006 26.8274 0.866606 26.8274H6.44316V29.3393C6.44316 29.7413 6.795 30.0928 7.1966 30.0928H26.4382C26.8402 30.0928 27.1917 29.7409 27.1917 29.3393V26.8274H32.7682C33.1702 26.8274 33.5217 26.4755 33.5217 26.0739C33.522 25.672 33.1201 25.3205 32.7181 25.3205H32.7184ZM25.6851 28.5859H7.9004V26.8273H25.6348L25.6352 28.5859H25.6851ZM16.7927 1.45669C19.606 1.45669 22.3692 1.75807 25.0319 2.31071L24.68 2.96393C24.5795 3.16473 24.6299 3.36588 24.8307 3.46646C24.8808 3.51657 24.9313 3.51657 25.0315 3.51657C25.1822 3.51657 25.2828 3.46646 25.3329 3.31577L25.785 2.51186V2.46175C27.2417 2.81359 28.6488 3.16508 30.005 3.66758L28.3972 6.33026L5.18754 6.32991L3.5797 3.66723C7.64899 2.21011 12.1708 1.45661 16.7926 1.45661L16.7927 1.45669ZM31.4625 7.78674L21.8166 25.3202H11.7687L2.1228 7.78674H31.4625Z" fill="white"/>
<path d="M13.6275 38.8349C13.6275 40.5935 15.0342 42.0001 16.7927 42.0001C18.5511 42.0001 19.9578 40.5934 19.9578 38.8349C19.9578 37.0764 16.7927 32.2537 16.7927 32.2537C16.7927 32.2537 13.6275 37.0764 13.6275 38.8349Z" fill="white"/>
</svg>
