<svg width="29" height="42" viewBox="0 0 29 42" fill="none" xmlns="http://www.w3.org/2000/svg">
<path d="M0.0181163 7.93639L2.7499 21.953C2.84923 22.4597 3.28629 22.8173 3.80282 22.8173H6.3857C6.98168 22.8173 7.45846 22.3405 7.45846 21.7446C7.45846 21.1486 6.98167 20.6718 6.3857 20.6718H4.68698L2.37239 8.80122H6.84258L9.29624 23.1163C9.35584 23.4342 9.63396 23.6726 9.96192 23.6726H10.1804V25.0137H9.95182C9.62387 25.0137 9.34575 25.2521 9.28614 25.5699L6.61397 41.1656C6.60387 41.2155 6.5941 41.275 6.5941 41.3245C6.5941 41.6922 6.89209 42 7.26955 42L25.6074 41.9993C25.806 41.9993 25.9949 41.9098 26.1239 41.761C26.2532 41.6118 26.3027 41.4131 26.273 41.2145L23.5908 25.5688C23.5312 25.2509 23.2531 25.0125 22.9251 25.0125H22.7066L22.7069 23.6818H22.9254C23.2534 23.6818 23.5315 23.4434 23.5911 23.1255L25.6276 11.2549L28.7866 7.82791C28.9654 7.62925 29.0153 7.35112 28.9058 7.10264C28.7964 6.85416 28.558 6.70532 28.29 6.70532H25.737L18.5748 3.8443L19.3297 0.834385C19.3796 0.635724 19.3398 0.417197 19.2105 0.258263C19.0812 0.0993302 18.8927 0 18.6839 0H14.2137C14.005 0 13.8164 0.0993302 13.6871 0.258263C13.5578 0.417197 13.5181 0.635716 13.5679 0.834385L14.3228 3.8443L7.22999 6.68548C7.19026 6.68548 7.15053 6.67538 7.12057 6.67538H1.07113C0.753273 6.67538 0.445186 6.81445 0.246526 7.06293C0.0478657 7.30133 -0.0413678 7.62896 0.018227 7.93701L0.0181163 7.93639ZM22.131 6.69456H10.7665L15.2367 4.90663H17.6607L22.131 6.69456ZM14.1045 8.03569H18.7932L17.9787 22.3399H14.9291L14.1045 8.03569ZM21.3661 23.6814V25.0225H11.5315V23.6814H21.3661ZM22.3594 22.3403H19.3098L20.1243 8.03602H25.6077H25.6178H26.7603L24.5053 10.4897C24.4157 10.589 24.3561 10.7082 24.3363 10.8274L22.3594 22.3403ZM20.1343 40.6681L19.7966 34.817C19.7966 34.7772 19.7865 34.7375 19.7768 34.6978L19.6377 32.2641C19.6377 32.2243 19.6478 32.1846 19.6377 32.1449L19.3097 26.3732H22.3593L24.813 40.6683L20.1343 40.6681ZM14.1045 40.6681L14.919 26.3638H17.9787L18.3164 32.2149V32.225L18.535 36.1589L18.7932 40.6688L14.1045 40.6681ZM10.5282 26.3638H13.5778L12.7633 40.6681H8.08438L10.5282 26.3638ZM8.09451 8.15524C8.11437 8.11551 8.12447 8.07578 8.13424 8.03605H12.7532L13.5678 22.3403H10.5182L8.09451 8.15524Z" fill="white"/>
</svg>
